<?xml version="1.0" encoding="UTF-8"?>
<svg xmlns="http://www.w3.org/2000/svg" xmlns:xlink="http://www.w3.org/1999/xlink" width="24px" height="24px" viewBox="0 0 24 25" version="1.1">
<g id="surface1">
<path style=" stroke:none;fill-rule:nonzero;fill:rgb(24.313725%,30.980392%,41.176471%);fill-opacity:1;" d="M 18.152344 18.078125 L 13.636719 18.078125 L 13.636719 22.488281 L 2.347656 22.488281 L 2.347656 2.644531 L 16.601562 2.644531 L 18.859375 0.441406 L 0.0898438 0.441406 L 0.0898438 24.695312 L 14.765625 24.695312 L 20.410156 19.183594 L 20.410156 10.777344 L 18.152344 12.980469 Z M 23.460938 3.460938 L 21.832031 1.871094 C 21.382812 1.433594 20.652344 1.433594 20.203125 1.871094 L 19.28125 2.773438 L 22.539062 5.953125 L 23.460938 5.054688 C 23.910156 4.613281 23.910156 3.902344 23.460938 3.460938 Z M 11.25 16.976562 L 11.378906 16.851562 L 8.125 13.671875 L 7.992188 13.796875 L 7.992188 16.976562 Z M 9.121094 12.695312 L 12.378906 15.875 L 21.539062 6.929688 L 18.285156 3.75 Z M 9.121094 12.695312 "/>
</g>
</svg>
