<?xml version="1.0" encoding="UTF-8"?>
<!DOCTYPE svg PUBLIC "-//W3C//DTD SVG 1.1//EN" "http://www.w3.org/Graphics/SVG/1.1/DTD/svg11.dtd">
<!-- Creator: CorelDRAW 2021 (64-Bit) -->
<svg xmlns="http://www.w3.org/2000/svg" xml:space="preserve" width="15mm" height="16mm" version="1.1" style="shape-rendering:geometricPrecision; text-rendering:geometricPrecision; image-rendering:optimizeQuality; fill-rule:evenodd; clip-rule:evenodd"
viewBox="0 0 1500 1600"
 xmlns:xlink="http://www.w3.org/1999/xlink"
 xmlns:xodm="http://www.corel.com/coreldraw/odm/2003">
 <defs>
  <style type="text/css">
   <![CDATA[
    .fil0 {fill:#3E4F69;fill-rule:nonzero}
   ]]>
  </style>
 </defs>
 <g id="Слой_x0020_1">
  <metadata id="CorelCorpID_0Corel-Layer"/>
  <path class="fil0" d="M1134.52 1157.11l-282.22 0 0 282.22 -705.55 0 0 -1270 890.76 0 141.11 -141.11 -1172.99 0 0 1552.22 917.23 0 352.77 -352.78 0 -537.98 -141.11 141.11 0 326.32zm331.76 -935.5l-101.85 -101.74c-28.05,-28.11 -73.66,-28.11 -101.78,0l-57.57 57.65 203.52 203.55 57.68 -57.68c28.04,-28.12 28.04,-73.73 0,-101.78zm-763.2 864.94l8.11 -8.15 -203.48 -203.51 -8.19 8.11 0 203.55 203.56 0zm-133 -274.03l203.55 203.48 572.63 -572.56 -203.55 -203.55 -572.63 572.63z"/>
 </g>
</svg>
