<?xml version="1.0" encoding="UTF-8"?>
<!DOCTYPE svg PUBLIC "-//W3C//DTD SVG 1.1//EN" "http://www.w3.org/Graphics/SVG/1.1/DTD/svg11.dtd">
<!-- Creator: CorelDRAW 2021 (64-Bit) -->
<svg xmlns="http://www.w3.org/2000/svg" xml:space="preserve" width="14.2mm" height="17mm" version="1.1" style="shape-rendering:geometricPrecision; text-rendering:geometricPrecision; image-rendering:optimizeQuality; fill-rule:evenodd; clip-rule:evenodd"
viewBox="0 0 1420 1700"
 xmlns:xlink="http://www.w3.org/1999/xlink"
 xmlns:xodm="http://www.corel.com/coreldraw/odm/2003">
 <defs>
  <style type="text/css">
   <![CDATA[
    .fil0 {fill:#3E4F69;fill-rule:nonzero}
   ]]>
  </style>
 </defs>
 <g id="Слой_x0020_1">
  <metadata id="CorelCorpID_0Corel-Layer"/>
  <path class="fil0" d="M73.81 1631.25c0,38.98 31.57,70.55 70.55,70.55l1128.89 0c38.98,0 70.56,-31.57 70.56,-70.55l0 -1199.45 -1270 0 0 1199.45zm917.22 -1023.06c0,-35.28 0,-35.28 35.28,-35.28l70.55 0c35.28,0 35.28,0 35.28,35.28l0 917.22c0,35.28 0,35.28 -35.28,35.28l-70.55 0c-35.28,0 -35.28,0 -35.28,-35.28l0 -917.22zm-352.78 0c0,-35.28 0,-35.28 35.28,-35.28l70.56 0c35.27,0 35.27,0 35.27,35.28l0 917.22c0,35.28 0,35.28 -35.27,35.28l-70.56 0c-35.28,0 -35.28,0 -35.28,-35.28l0 -917.22zm-352.78 0c0,-35.28 0,-35.28 35.28,-35.28l70.56 0c35.28,0 35.28,0 35.28,35.28l0 917.22c0,35.28 0,35.28 -35.28,35.28l-70.56 0c-35.28,0 -35.28,0 -35.28,-35.28l0 -917.22zm1058.34 -458.61l-352.78 0 0 -70.55c0,-38.99 -31.57,-70.56 -70.56,-70.56l-423.33 0c-38.98,0 -70.55,31.57 -70.55,70.56l0 70.55 -352.78 0c-38.98,0 -70.56,31.57 -70.56,70.56l0 141.11 1411.11 0 0 -141.11c0,-38.99 -31.57,-70.56 -70.55,-70.56zm-423.34 0l-423.33 0 0 -70.55 423.33 0 0 70.55z"/>
 </g>
</svg>
