<?xml version="1.0" encoding="UTF-8"?>
<!DOCTYPE svg PUBLIC "-//W3C//DTD SVG 1.1//EN" "http://www.w3.org/Graphics/SVG/1.1/DTD/svg11.dtd">
<!-- Creator: CorelDRAW 2021 (64-Bit) -->
<svg xmlns="http://www.w3.org/2000/svg" xml:space="preserve" width="56mm" height="45mm" version="1.1" style="shape-rendering:geometricPrecision; text-rendering:geometricPrecision; image-rendering:optimizeQuality; fill-rule:evenodd; clip-rule:evenodd"
viewBox="0 0 5600 4500"
 xmlns:xlink="http://www.w3.org/1999/xlink"
 xmlns:xodm="http://www.corel.com/coreldraw/odm/2003">
 <defs>
  <style type="text/css">
   <![CDATA[
    .fil0 {fill:#3E4F69;fill-rule:nonzero}
   ]]>
  </style>
 </defs>
 <g id="Слой_x0020_1">
  <metadata id="CorelCorpID_0Corel-Layer"/>
  <path class="fil0" d="M4647.95 38.8l-3700.96 0c-517.1,0 -937.58,420.9 -937.58,937.76l0 1134.85c0,517.17 420.48,937.75 937.58,937.75l2123.4 0 1232.26 1416.31 0 -1416.31 345.3 0c516.96,0 937.71,-420.58 937.71,-937.75l0 -1134.85c0,-516.86 -420.75,-937.76 -937.71,-937.76zm111.23 2085.1l-3923.28 0 0 -345.51 3923.28 0 0 345.51zm0 -789.84l-3923.28 0 0 -344.94 3923.28 0 0 344.94z"/>
 </g>
</svg>
