<?xml version="1.0" encoding="UTF-8"?>
<!DOCTYPE svg PUBLIC "-//W3C//DTD SVG 1.1//EN" "http://www.w3.org/Graphics/SVG/1.1/DTD/svg11.dtd">
<!-- Creator: CorelDRAW 2021 (64-Bit) -->
<svg xmlns="http://www.w3.org/2000/svg" xml:space="preserve" width="46mm" height="50mm" version="1.1" style="shape-rendering:geometricPrecision; text-rendering:geometricPrecision; image-rendering:optimizeQuality; fill-rule:evenodd; clip-rule:evenodd"
viewBox="0 0 4600 5000"
 xmlns:xlink="http://www.w3.org/1999/xlink"
 xmlns:xodm="http://www.corel.com/coreldraw/odm/2003">
 <defs>
  <style type="text/css">
   <![CDATA[
    .fil0 {fill:#3E4F69;fill-rule:nonzero}
   ]]>
  </style>
 </defs>
 <g id="Слой_x0020_1">
  <metadata id="CorelCorpID_0Corel-Layer"/>
  <path class="fil0" d="M1692.6 4560.07c0,71.4 13.02,139.56 35.74,203.13l-1565.17 0 0 -391.79 1559.87 0c-19.51,59.4 -30.44,122.73 -30.44,188.66zm2889.78 -1336.53l0 203.41c0,253.47 -207.51,460.9 -460.94,460.9l-1628.49 0 0 308.3c129.43,69.81 217.41,206.58 217.41,363.92 0,228.25 -185.06,413.32 -413.35,413.32 -228.24,0 -413.24,-185.07 -413.24,-413.32 0,-157.34 87.95,-294.11 217.38,-363.92l0 -308.3 -1628.49 0c-253.51,0 -460.91,-207.43 -460.91,-460.9l0 -203.41c0,-253.47 207.4,-460.91 460.91,-460.91l3648.78 0c253.43,0 460.94,207.44 460.94,460.91zm-1359.64 23.56c0,-59.76 -48.4,-108.19 -108.16,-108.19 -59.8,0 -108.24,48.43 -108.24,108.19 0,59.76 48.44,108.23 108.24,108.23 59.76,0 108.16,-48.47 108.16,-108.23zm419.06 0c0,-59.76 -48.43,-108.19 -108.23,-108.19 -59.73,0 -108.2,48.43 -108.2,108.19 0,59.76 48.47,108.23 108.2,108.23 59.8,0 108.23,-48.47 108.23,-108.23zm663.51 0c0,-113.77 -92.26,-205.95 -206.03,-205.95 -113.77,0 -205.98,92.18 -205.98,205.95 0,113.81 92.21,206.06 205.98,206.06 113.77,0 206.03,-92.25 206.03,-206.06zm-1403.78 1312.97c0,71.4 -13.01,139.56 -35.77,203.13l1565.31 0 0 -391.79 -1559.98 0c19.51,59.4 30.44,122.73 30.44,188.66zm1680.85 -4060.22l0 203.37c0,253.51 -207.51,460.94 -460.94,460.94l-3648.78 0c-253.51,0 -460.91,-207.43 -460.91,-460.94l0 -203.37c0,-253.55 207.4,-460.98 460.91,-460.98l3648.78 0c253.43,0 460.94,207.43 460.94,460.98zm-1359.64 23.56c0,-59.76 -48.4,-108.23 -108.16,-108.23 -59.8,0 -108.24,48.47 -108.24,108.23 0,59.8 48.44,108.23 108.24,108.23 59.76,0 108.16,-48.43 108.16,-108.23zm419.06 0c0,-59.76 -48.43,-108.23 -108.23,-108.23 -59.73,0 -108.2,48.47 -108.2,108.23 0,59.8 48.47,108.23 108.2,108.23 59.8,0 108.23,-48.43 108.23,-108.23zm663.51 0c0,-113.81 -92.26,-206.02 -206.03,-206.02 -113.77,0 -205.98,92.21 -205.98,206.02 0,113.77 92.21,205.99 205.98,205.99 113.77,0 206.03,-92.22 206.03,-205.99zm277.07 1338.3l0 203.38c0,253.5 -207.51,460.93 -460.94,460.93l-3648.78 0c-253.51,0 -460.91,-207.43 -460.91,-460.93l0 -203.38c0,-253.51 207.4,-460.98 460.91,-460.98l3648.78 0c253.43,0 460.94,207.47 460.94,460.98zm-1359.64 23.56c0,-59.79 -48.4,-108.23 -108.16,-108.23 -59.8,0 -108.24,48.44 -108.24,108.23 0,59.73 48.44,108.2 108.24,108.2 59.76,0 108.16,-48.47 108.16,-108.2zm419.06 0c0,-59.79 -48.43,-108.23 -108.23,-108.23 -59.73,0 -108.2,48.44 -108.2,108.23 0,59.73 48.47,108.2 108.2,108.2 59.8,0 108.23,-48.47 108.23,-108.2zm663.51 0c0,-113.77 -92.26,-205.98 -206.03,-205.98 -113.77,0 -205.98,92.21 -205.98,205.98 0,113.78 92.21,206.03 205.98,206.03 113.77,0 206.03,-92.25 206.03,-206.03z"/>
 </g>
</svg>
