<?xml version="1.0" encoding="UTF-8"?>
<!DOCTYPE svg PUBLIC "-//W3C//DTD SVG 1.1//EN" "http://www.w3.org/Graphics/SVG/1.1/DTD/svg11.dtd">
<!-- Creator: CorelDRAW 2021 (64-Bit) -->
<svg xmlns="http://www.w3.org/2000/svg" xml:space="preserve" width="42mm" height="58mm" version="1.1" style="shape-rendering:geometricPrecision; text-rendering:geometricPrecision; image-rendering:optimizeQuality; fill-rule:evenodd; clip-rule:evenodd"
viewBox="0 0 4200 5800"
 xmlns:xlink="http://www.w3.org/1999/xlink"
 xmlns:xodm="http://www.corel.com/coreldraw/odm/2003">
 <defs>
  <style type="text/css">
   <![CDATA[
    .fil0 {fill:#3E4F69;fill-rule:nonzero}
   ]]>
  </style>
 </defs>
 <g id="Слой_x0020_1">
  <metadata id="CorelCorpID_0Corel-Layer"/>
  <path class="fil0" d="M2406.67 838.9l-2049.57 0c-198.51,0 -360.96,162.45 -360.96,360.96l0 4226.56c0,198.51 162.45,360.96 360.96,360.96l2049.57 0c198.54,0 361,-162.45 361,-360.96l0 -4226.56c0,-198.51 -162.46,-360.96 -361,-360.96zm-433.14 2779.47c-93,0 -168.45,-75.39 -168.45,-168.42 0,-93.06 75.45,-168.42 168.45,-168.42 93.02,0 168.45,75.36 168.45,168.42 0,93.03 -75.43,168.42 -168.45,168.42zm409.08 -1054c0,59.59 -48.76,108.3 -108.3,108.3l-1857.06 0c-59.52,0 -108.27,-48.71 -108.27,-108.3l0 -9.66c0,-59.55 48.75,-108.27 108.27,-108.27l1857.06 0c59.54,0 108.3,48.72 108.3,108.27l0 9.66zm0 -541.44c0,59.58 -48.76,108.27 -108.3,108.27l-1857.06 0c-59.52,0 -108.27,-48.69 -108.27,-108.27l0 -9.67c0,-59.58 48.75,-108.3 108.27,-108.3l1857.06 0c59.54,0 108.3,48.72 108.3,108.3l0 9.67zm0 -541.45c0,59.59 -48.76,108.27 -108.3,108.27l-1857.06 0c-59.52,0 -108.27,-48.68 -108.27,-108.27l0 -9.66c0,-59.59 48.75,-108.3 108.27,-108.3l1857.06 0c59.54,0 108.3,48.71 108.3,108.3l0 9.66zm-180.48 -823.03l-1637.07 0 1848.84 -586.56c0,0 140.16,-51.12 278.52,-51.12 138.36,0 1235.64,0 1235.64,0 0,0 175.89,0 54.71,69.39 -167.78,101.82 -483.55,292.88 -693.42,417.06 -281.09,166.26 -736.24,151.23 -882.68,151.23l-204.54 0zm1985.32 -394.82c0,117.12 0,2616.58 0,3214.89 0,155.61 -63.14,224.79 -63.14,224.79l-1185.51 1821.18c5.85,-31.89 9.31,-64.55 9.31,-98.07l0 -4226.56c0,-312.77 144,-405.69 144,-405.69l1021.54 -615.18c0,0 73.8,-48.47 73.8,84.64z"/>
 </g>
</svg>
