<?xml version="1.0" encoding="UTF-8"?>
<!DOCTYPE svg PUBLIC "-//W3C//DTD SVG 1.1//EN" "http://www.w3.org/Graphics/SVG/1.1/DTD/svg11.dtd">
<!-- Creator: CorelDRAW 2021 (64-Bit) -->
<svg xmlns="http://www.w3.org/2000/svg" xml:space="preserve" width="53mm" height="54mm" version="1.1" style="shape-rendering:geometricPrecision; text-rendering:geometricPrecision; image-rendering:optimizeQuality; fill-rule:evenodd; clip-rule:evenodd"
viewBox="0 0 5300 5400"
 xmlns:xlink="http://www.w3.org/1999/xlink"
 xmlns:xodm="http://www.corel.com/coreldraw/odm/2003">
 <defs>
  <style type="text/css">
   <![CDATA[
    .fil0 {fill:#3E4F69;fill-rule:nonzero}
   ]]>
  </style>
 </defs>
 <g id="Слой_x0020_1">
  <metadata id="CorelCorpID_0Corel-Layer"/>
  <path class="fil0" d="M4761.82 2505.05l514.18 -352.15 -7.38 -32.49c-18.66,-84.28 -41.38,-167.5 -67.45,-247.9 -26.21,-80.39 -56.66,-161.21 -91.09,-240.2l-13.08 -30.8 -623.12 17.18c-66.11,-111.9 -143.68,-218.16 -230.75,-317.22l209.45 -587.65 -25.16 -22.05c-128.37,-113.31 -268.18,-214.7 -415.43,-301.38l-28.82 -16.76 -494.1 379.94c-119.06,-51.33 -244.19,-91.89 -372.53,-120.89l-176.25 -598.98 -33.37 -3.46c-170.25,-16.44 -342.8,-16.44 -513.12,0.32l-33.23 3.14 -176.35 598.66c-64.56,14.29 -127.96,31.71 -189.2,51.72 -61.35,19.89 -122.87,42.97 -183.55,69.18l-494.25 -380.72 -29.01 17.11c-147.36,86.36 -287.08,187.75 -415.21,301.45l-24.82 21.98 209.09 588.08c-86.86,98.99 -164.15,205.24 -230.59,316.86l-623.07 -17.18 -13.29 30.41c-68.37,156.99 -121.88,321.35 -159.14,487.75l-7.15 32.81 514.33 352.92c-12.23,131.13 -12.23,262.5 -0.17,391.9l-514.33 352.14 7.32 32.84c18.58,83.93 41.44,167.15 67.68,247.87 26.05,80.42 56.63,161.21 90.8,240.22l13.25 30.81 623.07 -17.52c66.27,111.96 143.73,218.56 230.78,317.2l-209.28 587.75 25.16 22.32c127.98,112.96 267.83,214.34 415.24,301.43l28.81 16.85 494.07 -380.1c119.24,51.33 244.23,91.96 372.57,120.91l176.39 599.04 33.37 3.14c170.18,16.37 342.87,16.37 512.98,0l33.2 -3.14 176.42 -598.64c64.28,-14.7 127.78,-31.82 189.16,-51.73 61.52,-19.98 123.08,-43.38 183.69,-69.25l494.24 380.42 28.89 -16.83c147.36,-86.69 287.06,-188.08 415.19,-301.44l25.01 -22.31 -209.27 -588.07c87.07,-98.99 164.15,-205.26 230.58,-316.87l623.11 17.57 13.26 -30.81c68.37,-156.66 121.85,-321 159.07,-487.76l7.38 -32.81 -514.5 -352.49c12.25,-131.2 12.42,-262.93 0.32,-392.32zm-2111.9 1708.03c-835.17,0 -1512.22,-677.04 -1512.22,-1512.28 0,-835.16 677.05,-1512.18 1512.22,-1512.18 835.2,0 1512.21,677.02 1512.21,1512.18 0,835.24 -677.01,1512.28 -1512.21,1512.28zm0 -2743.9c-680.26,0 -1231.65,551.47 -1231.65,1231.62 0,680.26 551.39,1231.71 1231.65,1231.71 680.26,0 1231.61,-551.45 1231.61,-1231.71 0,-680.15 -551.35,-1231.62 -1231.61,-1231.62zm0 1994.68c-421.43,0 -762.99,-341.59 -762.99,-763.06 0,-421.32 341.56,-762.99 762.99,-762.99 421.39,0 762.95,341.67 762.95,762.99 0,421.47 -341.56,763.06 -762.95,763.06z"/>
 </g>
</svg>
