<?xml version="1.0" encoding="UTF-8"?>
<!DOCTYPE svg PUBLIC "-//W3C//DTD SVG 1.1//EN" "http://www.w3.org/Graphics/SVG/1.1/DTD/svg11.dtd">
<!-- Creator: CorelDRAW 2021 (64-Bit) -->
<svg xmlns="http://www.w3.org/2000/svg" xml:space="preserve" width="21.32mm" height="20.68mm" version="1.1" style="shape-rendering:geometricPrecision; text-rendering:geometricPrecision; image-rendering:optimizeQuality; fill-rule:evenodd; clip-rule:evenodd"
viewBox="0 0 2132 2068"
 xmlns:xlink="http://www.w3.org/1999/xlink"
 xmlns:xodm="http://www.corel.com/coreldraw/odm/2003">
 <defs>
  <style type="text/css">
   <![CDATA[
    .fil1 {fill:none}
    .fil5 {fill:url(#id1)}
    .fil4 {fill:url(#id2)}
    .fil6 {fill:url(#id3)}
    .fil2 {fill:url(#id4)}
    .fil7 {fill:url(#id5)}
    .fil3 {fill:url(#id6)}
    .fil0 {fill:url(#id7)}
    .fil9 {fill:url(#id8)}
    .fil8 {fill:url(#id9)}
    .fil10 {fill:url(#id10)}
    .fil15 {fill:url(#id11)}
    .fil18 {fill:url(#id12)}
    .fil12 {fill:url(#id13)}
    .fil13 {fill:url(#id14)}
    .fil14 {fill:url(#id15)}
    .fil16 {fill:url(#id16)}
    .fil19 {fill:url(#id17)}
    .fil11 {fill:url(#id18)}
    .fil17 {fill:url(#id19)}
   ]]>
  </style>
    <clipPath id="id0">
     <path d="M1065.2 36.45c588.76,0 1066.03,453.72 1066.03,1013.42 0,559.7 -477.27,1013.42 -1066.03,1013.42 -588.75,0 -1066.02,-453.72 -1066.02,-1013.42 0,-559.7 477.27,-1013.42 1066.02,-1013.42z"/>
    </clipPath>
  <radialGradient id="id1" gradientUnits="userSpaceOnUse" gradientTransform="matrix(1.71848 -0 -0 -1.71848 -475 3195)" cx="661.32" cy="1175.21" r="442.33" fx="661.32" fy="1175.21">
   <stop offset="0" style="stop-opacity:1; stop-color:white"/>
   <stop offset="0.839216" style="stop-opacity:1; stop-color:#E1E1E1"/>
   <stop offset="1" style="stop-opacity:1; stop-color:#C4C4C4"/>
  </radialGradient>
  <radialGradient id="id2" gradientUnits="userSpaceOnUse" gradientTransform="matrix(1.71848 -0 -0 -1.71848 -767 2122)" xlink:href="#id1" cx="1067.37" cy="780.45" r="412.62" fx="1067.37" fy="780.45">
  </radialGradient>
  <radialGradient id="id3" gradientUnits="userSpaceOnUse" gradientTransform="matrix(1.7185 -0 -0 -1.71848 -938 3307)" xlink:href="#id1" cx="1305.81" cy="1216.42" r="540.37" fx="1305.81" fy="1216.42">
  </radialGradient>
  <radialGradient id="id4" gradientUnits="userSpaceOnUse" gradientTransform="matrix(1.7185 -0 -0 -1.7185 -932 569)" xlink:href="#id1" cx="1297.79" cy="209.17" r="300.97" fx="1297.79" fy="209.17">
  </radialGradient>
  <radialGradient id="id5" gradientUnits="userSpaceOnUse" gradientTransform="matrix(1.7185 -0 -0 -1.7185 -766 5167)" xlink:href="#id1" cx="1065.63" cy="1900.61" r="466.3" fx="1065.63" fy="1900.61">
  </radialGradient>
  <radialGradient id="id6" gradientUnits="userSpaceOnUse" gradientTransform="matrix(1.7185 -0 -0 -1.7185 -354 1420)" xlink:href="#id1" cx="493.08" cy="522.29" r="421.42" fx="493.08" fy="522.29">
  </radialGradient>
  <radialGradient id="id7" gradientUnits="userSpaceOnUse" gradientTransform="matrix(1.71848 -0 -0 -1.71848 -765 2854)" xlink:href="#id1" cx="1065.2" cy="1049.87" r="2668.64" fx="1065.2" fy="1049.87">
  </radialGradient>
  <radialGradient id="id8" gradientUnits="userSpaceOnUse" gradientTransform="matrix(15.0995 -0 -0 -15.0995 -13781 21445)" cx="977.4" cy="1332.04" r="303.72" fx="977.4" fy="1332.04">
   <stop offset="0" style="stop-opacity:1; stop-color:#47B4B9"/>
   <stop offset="1" style="stop-opacity:1; stop-color:#378A8E"/>
  </radialGradient>
  <radialGradient id="id9" gradientUnits="userSpaceOnUse" gradientTransform="matrix(31.0717 -0 -0 -31.0705 -29519 42722)" cx="981.61" cy="1332.14" r="147.6" fx="981.61" fy="1332.14">
   <stop offset="0" style="stop-opacity:1; stop-color:#F45000"/>
   <stop offset="1" style="stop-opacity:1; stop-color:#BC3D00"/>
  </radialGradient>
  <radialGradient id="id10" gradientUnits="userSpaceOnUse" gradientTransform="matrix(43.3365 -0 -0 -43.3337 -42023 59016)" cx="992.6" cy="1331.18" r="105.83" fx="992.6" fy="1331.18">
   <stop offset="0" style="stop-opacity:1; stop-color:#443800"/>
   <stop offset="1" style="stop-opacity:1; stop-color:#342B00"/>
  </radialGradient>
  <radialGradient id="id11" gradientUnits="userSpaceOnUse" gradientTransform="matrix(15.2374 -0 -0 -15.2374 -14106 21602)" cx="990.8" cy="1330.38" r="300.97" fx="990.8" fy="1330.38">
   <stop offset="0" style="stop-opacity:1; stop-color:#D1EDF8"/>
   <stop offset="1" style="stop-opacity:1; stop-color:#A1B6BF"/>
  </radialGradient>
  <radialGradient id="id12" gradientUnits="userSpaceOnUse" gradientTransform="matrix(19.5224 -0 -0 -19.5224 -18455 27333)" cx="996.34" cy="1331.85" r="234.91" fx="996.34" fy="1331.85">
   <stop offset="0" style="stop-opacity:1; stop-color:#8FECDA"/>
   <stop offset="1" style="stop-opacity:1; stop-color:#6EB5A8"/>
  </radialGradient>
  <radialGradient id="id13" gradientUnits="userSpaceOnUse" gradientTransform="matrix(22.2287 -0 -0 -22.2287 -21101 30876)" xlink:href="#id9" cx="993.99" cy="1329.23" r="206.31" fx="993.99" fy="1329.23">
  </radialGradient>
  <radialGradient id="id14" gradientUnits="userSpaceOnUse" gradientTransform="matrix(22.2287 -0 -0 -22.2287 -21101 30876)" xlink:href="#id9" cx="993.99" cy="1329.23" r="206.31" fx="993.99" fy="1329.23">
  </radialGradient>
  <radialGradient id="id15" gradientUnits="userSpaceOnUse" gradientTransform="matrix(32.4995 -0 -0 -32.4995 -31310 44580)" cx="993.99" cy="1330.78" r="141.11" fx="993.99" fy="1330.78">
   <stop offset="0" style="stop-opacity:1; stop-color:#E91900"/>
   <stop offset="1" style="stop-opacity:1; stop-color:#B41300"/>
  </radialGradient>
  <radialGradient id="id16" gradientUnits="userSpaceOnUse" gradientTransform="matrix(10.8823 -0 -0 -10.8823 -9704 15801)" xlink:href="#id11" cx="981.93" cy="1329.76" r="421.42" fx="981.93" fy="1329.76">
  </radialGradient>
  <radialGradient id="id17" gradientUnits="userSpaceOnUse" gradientTransform="matrix(64.999 -0 -0 -64.999 -63524 87830)" cx="992.58" cy="1330.78" r="70.56" fx="992.58" fy="1330.78">
   <stop offset="0" style="stop-opacity:1; stop-color:#50DABA"/>
   <stop offset="1" style="stop-opacity:1; stop-color:#3EA890"/>
  </radialGradient>
  <radialGradient id="id18" gradientUnits="userSpaceOnUse" gradientTransform="matrix(8.4869 -0 -0 -8.48679 -7389 12668)" xlink:href="#id9" cx="986.98" cy="1335.3" r="540.37" fx="986.98" fy="1335.3">
  </radialGradient>
  <radialGradient id="id19" gradientUnits="userSpaceOnUse" gradientTransform="matrix(19.3633 -0 -0 -19.3633 -18225 27116)" xlink:href="#id12" cx="992.48" cy="1331.61" r="236.84" fx="992.48" fy="1331.61">
  </radialGradient>
 </defs>
 <g id="Слой_x0020_1">
  <metadata id="CorelCorpID_0Corel-Layer"/>
  <g id="_2769407688848">
   <g>
   </g>
   <g style="clip-path:url(#id0)">
    <g id="_2769407698448">
     <polygon class="fil0" points="3733.81,3718.51 -1603.4,3718.51 -1603.4,-1618.77 3733.81,-1618.77 "/>
    </g>
   </g>
   <path class="fil1" d="M1065.2 36.45c588.76,0 1066.03,453.72 1066.03,1013.42 0,559.7 -477.27,1013.42 -1066.03,1013.42 -588.75,0 -1066.02,-453.72 -1066.02,-1013.42 0,-559.7 477.27,-1013.42 1066.02,-1013.42z"/>
   <path class="fil2" d="M1067.37 79.4c-38.95,0 -70.55,31.61 -70.55,70.56 0,38.98 31.55,70.55 70.55,70.55 149.31,0.04 296.9,37.93 426.71,109.61 10.82,5.93 22.51,8.82 34.04,8.82 24.87,0 48.99,-13.23 61.83,-36.51 18.85,-34.12 6.45,-77.05 -27.65,-95.85 -150.67,-83.19 -321.8,-127.14 -494.93,-127.18z"/>
   <path class="fil3" d="M843.81 106.07c-5.39,0 -10.87,0.6 -16.35,1.91 -183.17,43.95 -350.79,137.83 -484.66,271.56 -130.5,130.33 -223.52,293.14 -268.92,470.91 -9.65,37.76 13.11,76.16 50.87,85.81 5.87,1.52 11.76,2.25 17.5,2.25 31.49,0 60.2,-21.22 68.33,-53.13 39.16,-153.16 119.37,-293.59 231.92,-406.01 115.52,-115.35 260.01,-196.31 417.89,-234.16 37.9,-9.11 61.21,-47.21 52.16,-85.09 -7.79,-32.39 -36.71,-54.05 -68.74,-54.05z"/>
   <path class="fil4" d="M926.26 780.45l0 271.5c0,77.93 63.18,141.12 141.11,141.12 77.93,0 141.11,-63.19 141.11,-141.12l0 -543c0,-77.94 -63.18,-141.12 -141.11,-141.12 -77.93,0 -141.11,63.18 -141.11,141.12l0 271.5z"/>
   <path class="fil5" d="M536.46 1010.1c-50.47,21.49 -85.86,71.56 -85.86,129.88 0,164.7 64.08,319.59 180.46,436.15 27.56,27.63 63.72,41.41 99.87,41.41 36.06,0 72.16,-13.75 99.69,-41.25 55.15,-55.08 55.24,-144.42 0.17,-199.57 -63.17,-63.29 -97.96,-147.35 -97.96,-236.74 0,-45.57 -21.61,-86.1 -55.14,-111.9 18.66,-65.37 53.72,-125.3 103.08,-174.78 27.57,-27.56 27.53,-72.23 -0.06,-99.77 -13.79,-13.78 -31.82,-20.65 -49.84,-20.65 -18.08,0 -36.15,6.91 -49.93,20.72 -71.81,71.91 -121.14,160.24 -144.48,256.5z"/>
   <path class="fil6" d="M1417.88 676.05c-34.18,0 -68.44,12.33 -95.54,37.29 -57.36,52.8 -61.04,142.07 -8.27,199.4 122.11,132.61 117.72,336.34 -9.99,463.85 -63.24,63.18 -147.3,97.98 -236.71,97.98 -77.93,0 -141.11,63.18 -141.11,141.11 0,77.93 63.18,141.11 141.11,141.11 164.75,0 319.64,-64.11 436.15,-180.5 235.23,-234.84 243.23,-610.29 18.22,-854.69 -27.84,-30.24 -65.8,-45.55 -103.86,-45.55z"/>
   <path class="fil7" d="M669.93 1786.81c-26.75,0 -52.28,15.3 -64.17,41.18 -16.22,35.46 -0.68,77.31 34.74,93.57 134.36,61.57 277.95,92.81 426.87,92.85 1.9,0 3.78,-0.08 5.64,-0.22 145.24,-0.81 285.69,-31.45 417.45,-91.07 35.5,-16.1 51.23,-57.88 35.18,-93.41 -11.84,-26.06 -37.54,-41.46 -64.37,-41.46 -9.73,0 -19.61,2.02 -29.04,6.3 -113.39,51.35 -239.6,78.5 -364.89,78.54 -1.76,0 -3.49,0.06 -5.23,0.2 -126.59,-0.76 -248.6,-27.69 -362.77,-80.02 -9.56,-4.39 -19.57,-6.46 -29.41,-6.46z"/>
   <path class="fil8" d="M677.69 1028.08c-23.81,-18.33 -53.62,-29.21 -85.97,-29.21 -19.63,0 -38.3,3.99 -55.26,11.23 23.34,-96.26 72.67,-184.59 144.48,-256.5 13.78,-13.81 31.85,-20.72 49.93,-20.72 18.02,0 36.05,6.87 49.84,20.65 27.59,27.54 27.63,72.21 0.06,99.77 -49.36,49.48 -84.42,109.41 -103.08,174.78z"/>
   <path class="fil9" d="M730.93 1617.54c-36.15,0 -72.31,-13.78 -99.87,-41.41 -116.38,-116.56 -180.46,-271.45 -180.46,-436.15 0,-58.32 35.39,-108.39 85.86,-129.88 -10.2,42.01 -15.44,85.55 -15.44,129.88 0,38.95 31.59,70.55 70.56,70.55 38.96,0 70.55,-31.6 70.55,-70.55 0,-38.4 5.3,-75.96 15.56,-111.9 33.53,25.8 55.14,66.33 55.14,111.9 0,89.39 34.79,173.45 97.96,236.74 55.07,55.15 54.98,144.49 -0.17,199.57 -27.53,27.5 -63.63,41.25 -99.69,41.25z"/>
   <path class="fil10" d="M591.58 1210.53c-38.97,0 -70.56,-31.6 -70.56,-70.55 0,-44.33 5.24,-87.87 15.44,-129.88 16.96,-7.24 35.63,-11.23 55.26,-11.23 32.35,0 62.16,10.88 85.97,29.21 -10.26,35.94 -15.56,73.5 -15.56,111.9 0,38.95 -31.59,70.55 -70.55,70.55z"/>
   <path class="fil11" d="M1067.37 1756.79c-77.93,0 -141.11,-63.18 -141.11,-141.11 0,-77.93 63.18,-141.11 141.11,-141.11 89.41,0 173.47,-34.8 236.71,-97.98 127.71,-127.51 132.1,-331.24 9.99,-463.85 -52.77,-57.33 -49.09,-146.6 8.27,-199.4 27.1,-24.96 61.36,-37.29 95.54,-37.29 38.06,0 76.02,15.31 103.86,45.55 225.01,244.4 217.01,619.85 -18.22,854.69 -116.51,116.39 -271.4,180.5 -436.15,180.5z"/>
   <path class="fil12" d="M1208.48 780.45c0,-77.93 -63.18,-141.11 -141.11,-141.11 -77.93,0 -141.11,63.18 -141.11,141.11l0 -271.5c0,-77.94 63.18,-141.12 141.11,-141.12 77.93,0 141.11,63.18 141.11,141.12l0 271.5z"/>
   <path class="fil13" d="M1067.37 1193.07c-77.93,0 -141.11,-63.19 -141.11,-141.12l0 -271.5c0,77.93 63.18,141.11 141.11,141.11 77.93,0 141.11,-63.18 141.11,-141.11l0 271.5c0,77.93 -63.18,141.12 -141.11,141.12z"/>
   <path class="fil14" d="M1067.37 921.56c-77.93,0 -141.11,-63.18 -141.11,-141.11 0,-77.93 63.18,-141.11 141.11,-141.11 77.93,0 141.11,63.18 141.11,141.11 0,77.93 -63.18,141.11 -141.11,141.11z"/>
   <path class="fil15" d="M1528.12 338.94c-11.53,0 -23.22,-2.89 -34.04,-8.82 -129.81,-71.68 -277.4,-109.57 -426.71,-109.61 -39,0 -70.55,-31.57 -70.55,-70.55 0,-38.95 31.6,-70.56 70.55,-70.56 173.13,0.04 344.26,43.99 494.93,127.18 34.1,18.8 46.5,61.73 27.65,95.85 -12.84,23.28 -36.96,36.51 -61.83,36.51z"/>
   <path class="fil16" d="M142.25 938.51c-5.74,0 -11.63,-0.73 -17.5,-2.25 -37.76,-9.65 -60.52,-48.05 -50.87,-85.81 45.4,-177.77 138.42,-340.58 268.92,-470.91 133.87,-133.73 301.49,-227.61 484.66,-271.56 5.48,-1.31 10.96,-1.91 16.35,-1.91 32.03,0 60.95,21.66 68.74,54.05 9.05,37.88 -14.26,75.98 -52.16,85.09 -157.88,37.85 -302.37,118.81 -417.89,234.16 -112.55,112.42 -192.76,252.85 -231.92,406.01 -8.13,31.91 -36.84,53.13 -68.33,53.13z"/>
   <path class="fil17" d="M1067.37 2014.41c-148.92,-0.04 -292.51,-31.28 -426.87,-92.85 -35.42,-16.26 -50.96,-58.11 -34.74,-93.57 11.89,-25.88 37.42,-41.18 64.17,-41.18 9.84,0 19.85,2.07 29.41,6.46 114.17,52.33 236.18,79.26 362.77,80.02 -36.52,2.67 -65.29,33.15 -65.29,70.39 0,38.97 31.6,70.52 70.55,70.52l0.03 0c1.87,0 3.75,0 5.61,-0.01 -1.86,0.14 -3.74,0.22 -5.64,0.22z"/>
   <path class="fil18" d="M1073.01 2014.19c36.32,-2.88 64.92,-33.26 64.92,-70.33 0,-38.98 -31.56,-70.56 -70.56,-70.56 -1.75,0 -3.5,-0.01 -5.26,-0.01 1.74,-0.14 3.47,-0.2 5.23,-0.2 125.29,-0.04 251.5,-27.19 364.89,-78.54 9.43,-4.28 19.31,-6.3 29.04,-6.3 26.83,0 52.53,15.4 64.37,41.46 16.05,35.53 0.32,77.31 -35.18,93.41 -131.76,59.62 -272.21,90.26 -417.45,91.07z"/>
   <path class="fil19" d="M1067.4 2014.2l-0.03 0c-38.95,0 -70.55,-31.55 -70.55,-70.52 0,-37.24 28.77,-67.72 65.29,-70.39 1.76,0 3.51,0.01 5.26,0.01 39,0 70.56,31.58 70.56,70.56 0,37.07 -28.6,67.45 -64.92,70.33 -1.86,0.01 -3.74,0.01 -5.61,0.01z"/>
  </g>
 </g>
</svg>
